<svg xmlns="http://www.w3.org/2000/svg" width="251.765" height="30.684" viewBox="0 0 251.765 30.684">
  <g id="Group_68452" data-name="Group 68452" transform="translate(-1448.235 -1564.412)">
    <g id="clutch-co-vector-logo" transform="translate(1448.235 1564.412)">
      <path id="Path_20895" data-name="Path 20895" d="M177,235.9h4.968v30.672H177Z" transform="translate(-148.92 -235.9)"/>
      <path id="Path_20896" data-name="Path 20896" d="M238.611,302.116a4.817,4.817,0,0,1-5.184,5.184c-3.024,0-3.456-2.808-3.456-4.32V291.1H225v11.664a9.121,9.121,0,0,0,2.592,6.912,7.819,7.819,0,0,0,5.832,2.16,7.542,7.542,0,0,0,5.184-1.728v1.728h4.968V291.1h-4.968Z" transform="translate(-188.283 -281.164)"/>
      <path id="Path_20897" data-name="Path 20897" d="M342.84,249.1h-4.968v7.56H334.2v4.757h3.672V277.4h4.968V261.412h3.672v-4.757H342.84Z" transform="translate(-277.824 -246.724)"/>
      <path id="Path_20898" data-name="Path 20898" d="M422.089,303.6a6.814,6.814,0,0,1-4.1,1.512,5.732,5.732,0,0,1-5.832-6.043,5.555,5.555,0,0,1,5.832-5.832,5.7,5.7,0,0,1,4.1,1.512l.643.643,3.456-3.24-.864-.643a11.075,11.075,0,0,0-7.344-2.808,10.584,10.584,0,0,0,0,21.168,11.075,11.075,0,0,0,7.344-2.808l.864-.643-3.456-3.456Z" transform="translate(-337.849 -279.195)"/>
      <path id="Path_20899" data-name="Path 20899" d="M540.12,247.564a6.855,6.855,0,0,0-5.4-2.16,6.5,6.5,0,0,0-4.757,1.728V235.9H525v30.672h4.968V255.129c0-4.757,3.24-5.184,4.536-5.184,3.024,0,2.808,2.808,2.808,4.32v12.1h4.968v-11.88C542.28,251.668,541.632,249.076,540.12,247.564Z" transform="translate(-434.28 -235.9)"/>
      <circle id="Ellipse_3972" data-name="Ellipse 3972" cx="3.456" cy="3.456" r="3.456" transform="translate(76.464 16.632)" fill="#ef4335"/>
      <path id="Path_20900" data-name="Path 20900" d="M42.168,263.91a10.129,10.129,0,0,1-7.128,2.808c-5.4,0-9.288-4.32-9.288-10.157s3.888-10.157,9.5-10.157a10.164,10.164,0,0,1,7.128,3.024l.643.643,3.24-3.24-.643-.643a14.546,14.546,0,0,0-10.368-4.32C27.043,241.662,21,248.142,21,256.568s6.043,14.9,14.04,14.9a14.187,14.187,0,0,0,10.368-4.32l.643-.643-3.24-3.24Z" transform="translate(-21 -240.798)"/>
    </g>
    <path id="star" d="M23.363,8.584,15.985,7.457,12.678.413a.781.781,0,0,0-1.357,0L8.015,7.457.637,8.584A.75.75,0,0,0,.214,9.849l5.36,5.494L4.307,23.11a.751.751,0,0,0,1.1.777L12,20.245l6.59,3.643a.75.75,0,0,0,1.1-.777l-1.267-7.767,5.36-5.494A.751.751,0,0,0,23.363,8.584Z" transform="translate(1564 1567.981)" fill="#ee4335"/>
    <path id="star-2" data-name="star" d="M23.363,8.584,15.985,7.457,12.678.413a.781.781,0,0,0-1.357,0L8.015,7.457.637,8.584A.75.75,0,0,0,.214,9.849l5.36,5.494L4.307,23.11a.751.751,0,0,0,1.1.777L12,20.245l6.59,3.643a.75.75,0,0,0,1.1-.777l-1.267-7.767,5.36-5.494A.751.751,0,0,0,23.363,8.584Z" transform="translate(1592 1567.981)" fill="#ee4335"/>
    <path id="star-3" data-name="star" d="M23.363,8.584,15.985,7.457,12.678.413a.781.781,0,0,0-1.357,0L8.015,7.457.637,8.584A.75.75,0,0,0,.214,9.849l5.36,5.494L4.307,23.11a.751.751,0,0,0,1.1.777L12,20.245l6.59,3.643a.75.75,0,0,0,1.1-.777l-1.267-7.767,5.36-5.494A.751.751,0,0,0,23.363,8.584Z" transform="translate(1620 1567.981)" fill="#ee4335"/>
    <path id="star-4" data-name="star" d="M23.363,8.584,15.985,7.457,12.678.413a.781.781,0,0,0-1.357,0L8.015,7.457.637,8.584A.75.75,0,0,0,.214,9.849l5.36,5.494L4.307,23.11a.751.751,0,0,0,1.1.777L12,20.245l6.59,3.643a.75.75,0,0,0,1.1-.777l-1.267-7.767,5.36-5.494A.751.751,0,0,0,23.363,8.584Z" transform="translate(1648 1567.981)" fill="#ee4335"/>
    <path id="star-5" data-name="star" d="M23.363,8.584,15.985,7.457,12.678.413a.781.781,0,0,0-1.357,0L8.015,7.457.637,8.584A.75.75,0,0,0,.214,9.849l5.36,5.494L4.307,23.11a.751.751,0,0,0,1.1.777L12,20.245l6.59,3.643a.75.75,0,0,0,1.1-.777l-1.267-7.767,5.36-5.494A.751.751,0,0,0,23.363,8.584Z" transform="translate(1676 1567.981)" fill="#ee4335"/>
  </g>
</svg>
